<svg xmlns="http://www.w3.org/2000/svg" viewBox="0 0 64 64" role="img" aria-label="Colore & Verde">
  <defs>
    <linearGradient id="g" x1="0" y1="0" x2="1" y2="1">
      <stop offset="0" stop-color="#2e5c38"/>
      <stop offset="1" stop-color="#21422a"/>
    </linearGradient>
  </defs>
  <rect width="64" height="64" rx="15" fill="url(#g)"/>
  <!-- pennellata (imbianchino) -->
  <path d="M22 14h8a3 3 0 0 1 3 3v9H19v-9a3 3 0 0 1 3-3z" fill="#f6f1e6"/>
  <rect x="24" y="26" width="4" height="14" rx="2" fill="#f6f1e6"/>
  <!-- foglia (verde) -->
  <path d="M44 30c-9 1-13 7-13 16 9 0 15-5 15-14 0-.8-.7-2-2-2z" fill="#d99a4e"/>
  <path d="M33 46c1-5 4-8 9-10" fill="none" stroke="#2e5c38" stroke-width="2" stroke-linecap="round"/>
</svg>
